<?xml version="1.0" standalone="no"?>
<!DOCTYPE svg PUBLIC "-//W3C//DTD SVG 20010904//EN"
 "http://www.w3.org/TR/2001/REC-SVG-20010904/DTD/svg10.dtd">
<svg version="1.0" xmlns="http://www.w3.org/2000/svg"
 width="300.000000pt" height="300.000000pt" viewBox="0 0 300.000000 300.000000"
 preserveAspectRatio="xMidYMid meet">
<metadata>
Created by potrace 1.14, written by Peter Selinger 2001-2017
</metadata>
<g transform="translate(0.000000,300.000000) scale(0.100000,-0.100000)"
fill="#000000" stroke="none">
<path d="M1218 2550 c-104 -18 -196 -56 -291 -123 -64 -45 -64 -44 -103 26
-15 28 -43 34 -51 11 -2 -6 11 -33 30 -61 l34 -50 -29 -41 c-16 -23 -31 -42
-33 -42 -3 0 -12 15 -21 33 -18 35 -33 48 -46 41 -16 -10 -8 -41 22 -85 28
-43 29 -47 20 -109 -5 -36 -10 -157 -10 -269 0 -188 -2 -206 -21 -237 -26 -42
-35 -129 -19 -178 14 -44 53 -92 90 -111 24 -12 28 -21 33 -78 3 -35 19 -100
35 -144 l30 -80 -84 -6 c-188 -11 -310 -135 -307 -310 1 -74 47 -173 101 -217
35 -29 36 -30 12 -30 -40 0 -145 -55 -196 -102 -92 -85 -128 -157 -148 -300
l-13 -88 23 0 c19 0 24 7 29 38 20 130 32 158 104 236 81 86 182 126 323 126
73 0 101 -4 135 -21 46 -22 73 -61 73 -103 0 -60 24 -91 98 -127 l42 -21 0
-64 0 -64 35 0 35 0 0 54 c0 45 3 54 20 59 11 3 20 13 20 22 0 9 -9 19 -20 22
-16 4 -20 14 -20 47 0 39 -13 66 -31 66 -17 0 -39 -33 -39 -58 l0 -27 -26 26
c-19 19 -27 42 -35 93 -10 75 -26 111 -61 142 -38 35 -64 44 -126 44 -93 0
-157 24 -213 80 -129 129 -89 332 81 409 34 15 66 21 130 21 l85 0 57 -64 58
-64 -139 -4 c-123 -3 -143 -5 -168 -24 -38 -28 -57 -86 -43 -130 19 -58 57
-80 146 -87 44 -3 100 -13 125 -22 61 -21 124 -76 154 -134 89 -175 296 -261
486 -202 120 38 209 120 264 246 23 50 31 59 78 80 33 15 82 26 132 31 96 8
127 22 149 68 20 42 20 57 2 101 -25 60 -64 75 -194 75 l-114 0 51 57 c28 31
51 61 51 65 0 12 133 9 171 -4 61 -20 114 -64 144 -120 39 -69 42 -169 8 -234
-48 -91 -146 -144 -268 -144 -105 0 -168 -60 -178 -169 -3 -38 -14 -74 -28
-98 l-23 -37 -7 33 c-15 74 -62 66 -67 -12 -3 -39 -7 -46 -28 -51 -31 -8 -29
-40 4 -44 20 -3 22 -9 22 -58 l0 -54 35 0 35 0 0 64 0 64 54 26 c69 34 74 41
88 116 18 107 61 128 256 129 109 1 144 -3 194 -20 136 -45 248 -163 263 -274
13 -98 15 -105 39 -105 l23 0 -13 88 c-6 48 -19 106 -28 130 -52 144 -208 265
-358 279 l-66 6 34 29 c54 47 88 130 88 213 0 164 -120 289 -292 303 -53 4
-62 7 -56 21 28 63 57 166 62 218 4 53 8 62 27 67 32 8 82 68 94 113 18 63 13
107 -19 168 l-30 57 0 227 c0 204 -2 233 -21 289 -55 162 -192 262 -318 232
-47 -11 -53 -10 -116 20 -176 84 -361 116 -517 90z m-210 -605 c191 -77 249
-90 392 -89 131 2 196 15 364 76 54 20 76 24 105 17 68 -16 124 -11 162 16 20
13 39 21 43 18 3 -4 6 -157 6 -342 0 -370 -6 -424 -59 -538 -96 -205 -290
-336 -516 -350 -285 -17 -525 151 -622 434 -14 40 -17 109 -20 426 -4 362 -4
377 14 377 11 0 69 -20 131 -45z m-188 -415 c0 -139 0 -141 -21 -130 -48 26
-77 113 -59 178 10 39 50 92 70 92 6 0 10 -49 10 -140z m1345 110 c25 -27 30
-40 33 -98 3 -72 -16 -119 -57 -142 -21 -11 -21 -9 -21 130 0 77 4 140 8 140
5 0 21 -14 37 -30z m-945 -958 c0 -116 40 -187 131 -237 74 -40 152 -41 231
-2 93 46 138 123 138 241 l1 71 44 21 c51 24 51 24 65 -64 12 -70 -4 -152 -43
-225 -36 -69 -90 -119 -167 -156 -48 -23 -68 -26 -155 -26 -95 0 -103 2 -163
34 -103 56 -170 147 -192 261 -11 54 -6 133 11 176 l8 22 45 -22 45 -21 1 -73z
m120 39 c84 -19 233 -12 323 15 14 5 17 -2 17 -43 0 -69 -16 -118 -53 -160
-83 -94 -223 -97 -309 -6 -38 40 -58 94 -58 158 0 49 2 56 18 51 9 -3 37 -10
62 -15z"/>
<path d="M1130 1724 c-19 -8 -38 -20 -42 -27 -14 -23 9 -27 47 -6 32 16 52 19
100 15 33 -2 72 -8 88 -12 40 -10 34 14 -8 32 -44 18 -140 17 -185 -2z"/>
<path d="M1628 1729 c-14 -6 -29 -17 -32 -26 -5 -12 -1 -14 21 -9 16 4 56 10
90 13 52 4 70 2 104 -16 44 -23 55 -22 45 4 -14 38 -157 59 -228 34z"/>
<path d="M1212 1634 c-31 -22 -30 -69 3 -90 23 -15 27 -15 50 0 33 21 34 68 3
90 -12 9 -25 16 -28 16 -3 0 -16 -7 -28 -16z"/>
<path d="M1672 1634 c-36 -25 -24 -82 19 -97 26 -9 59 20 59 53 0 25 -29 60
-50 60 -3 0 -16 -7 -28 -16z"/>
<path d="M1434 1442 c-6 -4 -21 -41 -33 -81 -22 -72 -22 -76 -5 -88 10 -7 42
-13 72 -13 46 0 53 3 50 18 -2 12 -15 18 -46 20 -23 2 -42 5 -42 8 0 2 8 31
17 64 16 59 11 88 -13 72z"/>
<path d="M1666 1175 c-3 -9 -6 -26 -6 -37 0 -53 -80 -116 -161 -127 -27 -3
-51 -10 -52 -16 -3 -15 63 -18 106 -5 86 25 173 148 134 187 -12 13 -15 12
-21 -2z"/>
</g>
</svg>
