<svg xmlns="http://www.w3.org/2000/svg" version="1.1" xmlns:xlink="http://www.w3.org/1999/xlink" xmlns:svgjs="http://svgjs.dev/svgjs" width="100%" height="100%" viewBox="0 0 1000 600"><rect width="1000" height="600" x="0" y="0" fill="#ffffff"/><g><circle r="166.66666666666666" cx="411.3174692789713" cy="433.53959684446454" fill="#000000" transform="matrix(0.5109325766918613,0,0,0.5109325766918613,0,78.4905081303988)"/><path d="M394.13052371177537 471.75068626482744L346.50082912639334 508.53959402626896Q324.5240855402368 508.53959402626896 311.5902755176148 494.85444234258176L311.5902755176148 494.85444234258176Q298.8711345410114 481.3571260741608 298.8711345410114 461.3660711636765L298.8711345410114 461.3660711636765L316.7691662528141 452.8598102151886L317.7351769598979 452.8598102151886L317.7351769598979 461.3660711636765Q317.7351769598979 473.8168758327567 324.5240855402368 481.8401314277027L324.5240855402368 481.8401314277027Q332.7351765504492 491.55390576004544 346.50082912639334 491.55390576004544L346.50082912639334 491.55390576004544Q359.9981453948143 491.55390576004544 368.4775727125499 481.8401314277027L368.4775727125499 481.8401314277027Q375.2664812928889 474.00471124802294 375.2664812928889 461.3660711636765L375.2664812928889 461.3660711636765Q375.2664812928889 449.18360280211965 369.711919727157 442.7703650523133L369.711919727157 442.7703650523133Q361.9570004397342 433.9152669040451 346.39349460338406 433.9152669040451L346.39349460338406 433.9152669040451Q328.95163461437096 433.9152669040451 316.7691662528141 422.59147472656275L316.7691662528141 422.59147472656275Q307.35056185874697 413.8168774705515 307.35056185874697 397.77036628065946L307.35056185874697 397.77036628065946L307.35056185874697 388.72743271712494L346.50082912639334 358.53959812075607Q364.3183599459391 359.7471115046108 373.9516333860248 367.5825316842906L373.9516333860248 367.5825316842906Q385.65109639403977 377.10847060136695 385.65109639403977 395.59684218972086L385.65109639403977 395.59684218972086L367.7262310514847 404.10310313820884L366.78705397515324 404.10310313820884L366.78705397515324 395.59684218972086Q366.78705397515324 384.00471370471524 360.64215253287017 378.63798755424966L360.64215253287017 378.63798755424966Q354.7119201366057 373.43226318829807 346.50082912639334 373.43226318829807L346.50082912639334 373.43226318829807Q337.3505610398496 373.43226318829807 331.7691658433654 379.2014938000485Q326.2146042776335 384.9438907810467 326.2146042776335 395.59684218972086L326.2146042776335 395.59684218972086Q326.2146042776335 405.90095639861477 330.4543179365013 410.59684178027214L330.4543179365013 410.59684178027214Q336.11621402524247 416.9295786378216 346.39349460338406 416.9295786378216L346.39349460338406 416.9295786378216Q368.9605780660918 416.9295786378216 381.41138273517197 427.689864569505L381.41138273517197 427.689864569505Q394.13052371177537 438.7184868087118 394.13052371177537 461.17823574841026L394.13052371177537 461.17823574841026L394.13052371177537 471.75068626482744ZM429.041077320554 508.53959402626896L428.10190024422246 508.53959402626896L428.10190024422246 367.01902543849167L446.0267655867775 358.53959812075607L446.965942663109 358.53959812075607L446.965942663109 471.2676809112855Q460.0875881009973 466.84013183715143 471.7870511090123 459.3803824880043L471.7870511090123 459.3803824880043L457.35055776425986 438.7184868087118L473.9605751999508 430.8025657367751L474.8997522762823 430.8025657367751L486.78705069956357 447.8687548952556Q499.8013616144426 431.4465728748309 499.8013616144426 386.0709032726445L499.8013616144426 386.0709032726445L499.8013616144426 367.01902543849167L517.7262269569976 358.53959812075607L518.6654040333291 358.53959812075607L518.6654040333291 385.6952324421119Q518.6654040333291 432.4930844741717 493.0124530341036 456.7506866742761L493.0124530341036 456.7506866742761L523.7637938762714 500.7041738465892L507.1537764405804 508.53959402626896L506.214599364249 508.53959402626896L478.0124534435523 468.2354806362725Q463.57596009879995 476.3660707542278 446.965942663109 480.71311893610493L446.965942663109 480.71311893610493L446.965942663109 500.03333307778104L429.041077320554 508.53959402626896Z " fill="#ffffff" transform="matrix(0.5109325766918613,0,0,0.5109325766918613,0,78.4905081303988)"/><path d="M662.0641548516501 477.79717494132916L661.3174616099634 477.79717494132916L661.3174616099634 365.28117046547544L675.5686354798668 358.53959719767687L676.3153287215534 358.53959719767687L676.3153287215534 467.2794672798586Q694.769318837521 463.9940170164378 706.6310743340274 455.0550322088188L706.6310743340274 455.0550322088188Q721.0315868522681 444.1959790654343 721.0315868522681 431.6728666977198L721.0315868522681 431.6728666977198Q721.0315868522681 420.64314081337847 707.2284289273766 413.13354021127367L707.2284289273766 413.13354021127367Q699.8041646957504 409.08006261354666 693.3399346320068 407.287998833499L693.3399346320068 407.287998833499Q709.7031836712521 398.0716708218249 709.7031836712521 386.20991532531855L709.7031836712521 386.20991532531855Q709.7031836712521 378.6363124453549 698.6734577869107 373.2387870125921L698.6734577869107 373.2387870125921Q688.6251001630717 368.2039411543628 676.9980196853811 366.7105546709897L676.9980196853811 366.7105546709897L694.1719642441718 358.53959719767687L694.9186574858584 358.53959719767687Q706.161724296396 361.3130292382269 712.8392952863356 366.9452296898055L712.8392952863356 366.9452296898055Q721.6289414456173 374.2841575509533 721.6289414456173 384.2685128969335L721.6289414456173 384.2685128969335Q721.6289414456173 393.0368249635956 711.5805838217783 400.9091051402338L711.5805838217783 400.9091051402338Q718.3221570895769 402.78650529076003 724.1676984673516 407.5013397596951L724.1676984673516 407.5013397596951Q734.9627493328773 416.20564954849834 734.9627493328773 428.4300846195382L734.9627493328773 428.4300846195382Q734.9627493328773 446.58539743883125 716.2954182907133 459.25784845488306L716.2954182907133 459.25784845488306Q693.6386119286815 474.4903905852887 662.0641548516501 477.79717494132916L662.0641548516501 477.79717494132916ZM755.9768305631987 477.79717494132916L755.2301373215123 477.79717494132916L755.2301373215123 413.36821523008945L786.3565784535317 389.2820246625432Q800.5224159529565 390.26339292304556 808.1813552033987 396.49294796797335L808.1813552033987 396.49294796797335Q817.4830195855511 404.066550847937 817.4830195855511 418.76574066285224L817.4830195855511 418.76574066285224L803.2318457156478 425.50731393065087L802.4851524739612 425.50731393065087L802.4851524739612 418.76574066285224Q802.4851524739612 409.3787399102213 797.5569770788301 405.2612600346354Q792.6501357763184 401.1437801590496 786.2712420830532 401.1437801590496L786.2712420830532 401.1437801590496Q779.7430097414508 401.1437801590496 774.6441616053626 405.7092759796474L774.6441616053626 405.7092759796474Q770.2280044331021 409.67741720689594 770.2280044331021 418.76574066285224L770.2280044331021 418.76574066285224L770.2280044331021 471.034267580911L755.9768305631987 477.79717494132916ZM894.73376896118 453.71098437378294L863.6073278291605 477.79717494132916Q849.420156237116 476.8158066808268 841.7825510792935 470.58625163589903L841.7825510792935 470.58625163589903Q832.480886697141 462.94864647807657 832.480886697141 448.31345894102014L832.480886697141 448.31345894102014L832.480886697141 413.36821523008945L863.6073278291605 389.2820246625432Q877.7731653285854 390.26339292304556 885.4321045790275 396.49294796797335L885.4321045790275 396.49294796797335Q894.73376896118 404.066550847937 894.73376896118 418.76574066285224L894.73376896118 418.76574066285224L848.6094607175706 456.03640046932105Q849.9535085526064 459.79120077037345 852.3429269260033 461.81793956923696L852.3429269260033 461.81793956923696Q857.2284341358953 465.9354194448228 863.4579891808232 465.9354194448228L863.4579891808232 465.9354194448228Q869.9862215224256 465.9354194448228 875.29841058471 461.369923624225L875.29841058471 461.369923624225Q879.73590184959 457.52978695269417 879.73590184959 448.31345894102014L879.73590184959 448.31345894102014L893.9870757194934 441.5718856732216L894.73376896118 441.5718856732216L894.73376896118 453.71098437378294ZM847.478753808731 418.76574066285224L847.478753808731 445.0066745849797L879.73590184959 418.8297429407111Q879.73590184959 409.3787399102213 874.8077264544588 405.2612600346354Q869.9008851519471 401.1437801590496 863.6073278291605 401.1437801590496L863.6073278291605 401.1437801590496Q856.3324022458715 401.1437801590496 851.8949109809914 405.7092759796474Q847.478753808731 410.2961058928648 847.478753808731 418.76574066285224L847.478753808731 418.76574066285224ZM944.6128775058418 465.9354194448228L944.6128775058418 465.9354194448228Q952.48515768248 465.9354194448228 956.3039602613912 461.369923624225L956.3039602613912 461.369923624225Q960.7414515262712 456.03640046932105 960.7414515262712 448.07878392220437L960.7414515262712 448.07878392220437Q960.7414515262712 438.94779228100884 955.8559443163792 434.59563738660717L955.8559443163792 434.59563738660717Q951.205112125303 430.4568234184017 944.6128775058418 430.4568234184017L944.6128775058418 430.4568234184017Q936.7405973292035 430.4568234184017 932.9004606576726 435.0436533316191L932.9004606576726 435.0436533316191Q928.4843034854122 440.35584239390346 928.4843034854122 448.07878392220437L928.4843034854122 448.07878392220437Q928.4843034854122 457.46578467483533 933.3484766026846 461.81793956923696L933.3484766026846 461.81793956923696Q938.0846451642393 465.9354194448228 944.6128775058418 465.9354194448228ZM960.7414515262712 465.2740625736147L944.6128775058418 477.79717494132916Q930.6603809326131 476.8158066808268 922.7881007559748 470.58625163589903L922.7881007559748 470.58625163589903Q913.4864363738224 463.24732377475124 913.4864363738224 448.31345894102014L913.4864363738224 448.31345894102014L913.4864363738224 442.6812584894416L944.6128775058418 418.61640201451496Q954.0638805363316 419.277758885723 960.7414515262712 422.37120231556736L960.7414515262712 422.37120231556736L960.7414515262712 418.76574066285224Q960.7414515262712 409.67741720689594 955.8559443163792 405.2612600346354L955.8559443163792 405.2612600346354Q951.205112125303 401.1437801590496 944.6128775058418 401.1437801590496L944.6128775058418 401.1437801590496Q937.2526155520743 401.1437801590496 932.9004606576726 405.7092759796474L932.9004606576726 405.7092759796474L928.7829807820868 401.5064597335831L944.6128775058418 389.2820246625432Q958.7787150052667 390.26339292304556 966.4376542557087 396.49294796797335L966.4376542557087 396.49294796797335Q975.7393186378612 404.066550847937 975.7393186378612 418.76574066285224L975.7393186378612 418.76574066285224L975.7393186378612 471.034267580911L961.4881447679578 477.79717494132916L960.7414515262712 477.79717494132916L960.7414515262712 465.2740625736147ZM1002.7269458016752 477.79717494132916L1001.9802525599887 477.79717494132916L1001.9802525599887 365.28117046547544L1016.2314264298919 358.53959719767687L1016.9781196715786 358.53959719767687L1016.9781196715786 423.18189783511275L1056.659531944064 389.2820246625432L1057.4062251857504 389.2820246625432L1064.1691325461688 395.36224105913374L1045.1817901147106 411.4908150795633Q1050.7286541958108 413.282878859611 1054.9314704418753 416.58966321565146L1054.9314704418753 416.58966321565146Q1064.2331348240277 424.0779297251366 1064.2331348240277 438.86245591053034L1064.2331348240277 438.86245591053034L1064.2331348240277 471.034267580911L1049.9819609541241 477.79717494132916L1049.2352677124377 477.79717494132916L1049.2352677124377 438.86245591053034Q1049.2352677124377 429.8594688250525 1044.3497605025455 425.35797528231353L1044.3497605025455 425.35797528231353Q1039.8482669598066 421.2404954067277 1033.106693692008 421.2404954067277L1033.106693692008 421.2404954067277Q1025.9171044791974 421.2404954067277 1021.4369450290782 425.8059912273255Q1016.9781196715786 430.3928211405429 1016.9781196715786 438.86245591053034L1016.9781196715786 438.86245591053034L1016.9781196715786 471.034267580911L1002.7269458016752 477.79717494132916ZM1091.2420960804611 477.79717494132916L1090.4954028387747 477.79717494132916L1090.4954028387747 396.04493202296146L1104.7465767086778 389.2820246625432L1105.4932699503645 389.2820246625432L1105.4932699503645 471.034267580911L1091.2420960804611 477.79717494132916ZM1104.7465767086778 358.53959719767687L1105.4932699503645 358.53959719767687L1105.4932699503645 375.62820538598913L1091.2420960804611 382.3911127464073L1090.4954028387747 382.3911127464073L1090.4954028387747 365.28117046547544L1104.7465767086778 358.53959719767687ZM1132.4808971141783 477.79717494132916L1131.734203872492 477.79717494132916L1131.734203872492 413.36821523008945L1162.8606450045113 389.2820246625432Q1177.047816596556 390.26339292304556 1184.6854217543782 396.49294796797335L1184.6854217543782 396.49294796797335Q1193.987086136531 404.066550847937 1193.987086136531 418.76574066285224L1193.987086136531 418.76574066285224L1193.987086136531 471.034267580911L1179.7359122666276 477.79717494132916L1178.9892190249411 477.79717494132916L1178.9892190249411 418.76574066285224Q1178.9892190249411 409.3787399102213 1174.1037118150489 405.2612600346354Q1169.2395386977767 401.1437801590496 1162.8606450045113 401.1437801590496L1162.8606450045113 401.1437801590496Q1155.8203944400384 401.1437801590496 1151.169562248962 405.7092759796474L1151.169562248962 405.7092759796474Q1146.732070984082 410.061430874049 1146.732070984082 418.76574066285224L1146.732070984082 418.76574066285224L1146.732070984082 471.034267580911L1132.4808971141783 477.79717494132916ZM1236.356594079088 461.81793956923696Q1241.3061035668388 465.9354194448228 1247.4289881486684 465.9354194448228Q1253.5518727304982 465.9354194448228 1259.3120777377944 461.369923624225L1259.3120777377944 461.369923624225Q1263.7495690026747 457.6791256010315 1263.7495690026747 448.31345894102014L1263.7495690026747 448.31345894102014L1263.7495690026747 418.76574066285224Q1263.7495690026747 409.3787399102213 1258.8213936075435 405.2612600346354Q1253.9145523050317 401.1437801590496 1247.620994982245 401.1437801590496L1247.620994982245 401.1437801590496Q1240.346069398956 401.1437801590496 1235.908578134076 405.7092759796474Q1231.4924209618155 410.2961058928648 1231.4924209618155 418.76574066285224L1231.4924209618155 418.76574066285224L1231.4924209618155 448.31345894102014Q1231.4924209618155 457.76446197150995 1236.356594079088 461.81793956923696L1236.356594079088 461.81793956923696ZM1263.7495690026747 465.3380648514736L1247.620994982245 477.79717494132916Q1233.4338233902004 476.8158066808268 1225.7962182323781 470.58625163589903L1225.7962182323781 470.58625163589903Q1216.4945538502257 462.94864647807657 1216.4945538502257 448.31345894102014L1216.4945538502257 448.31345894102014L1216.4945538502257 413.36821523008945L1247.620994982245 389.2820246625432Q1261.78683248167 390.26339292304556 1269.445771732112 396.49294796797335L1269.445771732112 396.49294796797335Q1278.7474361142645 403.98121447745854 1278.7474361142645 418.76574066285224L1278.7474361142645 418.76574066285224L1278.7474361142645 484.47474593126896L1247.620994982245 508.53960240619557Q1231.9404369068275 507.49423186783434 1225.9455568807152 501.49935184172233L1225.9455568807152 501.49935184172233L1236.356594079088 492.5603670341033Q1240.7940853439677 496.69918100230876 1247.5356586117666 496.69918100230876L1247.5356586117666 496.69918100230876Q1254.5119068983809 496.69918100230876 1259.3120777377944 492.1123510890914L1259.3120777377944 492.1123510890914Q1263.7495690026747 487.9095348430271 1263.7495690026747 479.0558864058865L1263.7495690026747 479.0558864058865L1263.7495690026747 465.3380648514736ZM1363.7211270181942 424.9952957077801L1301.2335697353396 424.9952957077801L1301.2335697353396 424.2272683734739L1307.31378613193 411.341476431226L1369.8013434147847 411.341476431226L1369.8013434147847 412.0881696729125L1363.7211270181942 424.9952957077801ZM1454.5403592998987 453.71098437378294L1423.4139181678793 477.79717494132916Q1409.2480806684543 476.8158066808268 1401.5891414180123 470.58625163589903L1401.5891414180123 470.58625163589903Q1392.2874770358599 462.94864647807657 1392.2874770358599 448.31345894102014L1392.2874770358599 448.31345894102014L1392.2874770358599 413.36821523008945L1423.4139181678793 389.2820246625432Q1437.601089759924 390.26339292304556 1445.2386949177462 396.49294796797335L1445.2386949177462 396.49294796797335Q1454.5403592998987 404.066550847937 1454.5403592998987 418.76574066285224L1454.5403592998987 418.76574066285224L1440.2891854299955 425.50731393065087L1439.5424921883086 425.50731393065087L1439.5424921883086 418.76574066285224Q1439.5424921883086 409.67741720689594 1434.6783190710362 405.2612600346354L1434.6783190710362 405.2612600346354Q1430.0274868799602 401.1437801590496 1423.4139181678793 401.1437801590496L1423.4139181678793 401.1437801590496Q1416.0749903067317 401.2077824369085 1411.72283541233 405.7092759796474L1411.72283541233 405.7092759796474Q1407.3066782400692 410.2961058928648 1407.3066782400692 418.76574066285224L1407.3066782400692 418.76574066285224L1407.3066782400692 448.31345894102014Q1407.3066782400692 457.3804483043569 1412.1708513573417 461.81793956923696L1412.1708513573417 461.81793956923696Q1416.8216835484182 465.9354194448228 1423.4139181678793 465.9354194448228L1423.4139181678793 465.9354194448228Q1430.7741801216466 465.87141716696397 1435.1263350160484 461.369923624225L1435.1263350160484 461.369923624225Q1439.5424921883086 456.7830937110076 1439.5424921883086 448.31345894102014L1439.5424921883086 448.31345894102014L1453.7936660582122 441.5718856732216L1454.5403592998987 441.5718856732216L1454.5403592998987 453.71098437378294ZM1539.3007092776324 453.71098437378294L1508.174268145613 477.79717494132916Q1494.0084306461881 476.8158066808268 1486.349491395746 470.58625163589903L1486.349491395746 470.58625163589903Q1477.0478270135932 462.94864647807657 1477.0478270135932 448.31345894102014L1477.0478270135932 448.31345894102014L1477.0478270135932 413.36821523008945L1508.174268145613 389.2820246625432Q1522.3614397376573 390.26339292304556 1529.99904489548 396.49294796797335L1529.99904489548 396.49294796797335Q1539.3007092776324 404.066550847937 1539.3007092776324 418.76574066285224L1539.3007092776324 418.76574066285224L1539.3007092776324 453.71098437378294ZM1508.174268145613 465.9354194448228L1508.174268145613 465.9354194448228Q1515.2998550805646 465.9354194448228 1519.8013486233035 461.369923624225Q1524.3028421660424 456.7830937110076 1524.3028421660424 448.31345894102014L1524.3028421660424 448.31345894102014L1524.3028421660424 418.76574066285224Q1524.3028421660424 409.3787399102213 1519.3960008635308 405.2612600346354Q1514.4678254683995 401.1437801590496 1508.174268145613 401.1437801590496L1508.174268145613 401.1437801590496Q1501.048681210661 401.1437801590496 1496.5471876679221 405.7092759796474Q1492.0456941251832 410.2961058928648 1492.0456941251832 418.76574066285224L1492.0456941251832 418.76574066285224L1492.0456941251832 448.31345894102014Q1492.0456941251832 457.6791256010315 1496.9312013350755 461.81793956923696Q1501.795374452348 465.9354194448228 1508.174268145613 465.9354194448228ZM1592.9346181233464 465.9354194448228L1592.9346181233464 465.9354194448228Q1600.1242073361568 465.9354194448228 1604.5830326936566 461.369923624225Q1609.0631921437762 456.7830937110076 1609.0631921437762 448.31345894102014L1609.0631921437762 448.31345894102014L1609.0631921437762 418.76574066285224Q1609.0631921437762 409.97609450357055 1604.177684933884 405.2612600346354L1604.177684933884 405.2612600346354Q1599.9108664099608 401.1437801590496 1592.9346181233464 401.1437801590496L1592.9346181233464 401.1437801590496Q1585.8090311883948 401.1437801590496 1581.3075376456559 405.7092759796474Q1576.806044102917 410.2961058928648 1576.806044102917 418.76574066285224L1576.806044102917 418.76574066285224L1576.806044102917 448.31345894102014Q1576.806044102917 457.6791256010315 1581.6702172201894 461.81793956923696Q1586.5557244300817 465.9354194448228 1592.9346181233464 465.9354194448228ZM1624.0610592553658 453.71098437378294L1592.9346181233464 477.79717494132916Q1578.747446531302 476.8158066808268 1571.1098413734794 470.58625163589903L1571.1098413734794 470.58625163589903Q1561.808176991327 462.94864647807657 1561.808176991327 448.31345894102014L1561.808176991327 448.31345894102014L1561.808176991327 413.36821523008945L1592.9346181233464 389.2820246625432Q1602.4496234316953 389.96471562637095 1609.0631921437762 392.9514885931171L1609.0631921437762 392.9514885931171L1609.0631921437762 365.28117046547544L1623.3143660136793 358.53959719767687L1624.0610592553658 358.53959719767687L1624.0610592553658 453.71098437378294ZM1712.5548754415322 453.71098437378294L1681.4284343095128 477.79717494132916Q1667.2625968100879 476.8158066808268 1659.6036575596459 470.58625163589903L1659.6036575596459 470.58625163589903Q1650.3019931774934 462.94864647807657 1650.3019931774934 448.31345894102014L1650.3019931774934 448.31345894102014L1650.3019931774934 413.36821523008945L1681.4284343095128 389.2820246625432Q1695.6156059015575 390.26339292304556 1703.2532110593797 396.49294796797335L1703.2532110593797 396.49294796797335Q1712.5548754415322 404.066550847937 1712.5548754415322 418.76574066285224L1712.5548754415322 418.76574066285224L1666.4305671979228 456.03640046932105Q1667.7746150329585 459.79120077037345 1670.1853674989752 461.81793956923696L1670.1853674989752 461.81793956923696Q1675.0495406162477 465.9354194448228 1681.2790956611757 465.9354194448228L1681.2790956611757 465.9354194448228Q1687.807328002778 465.9354194448228 1693.140851157682 461.369923624225L1693.140851157682 461.369923624225Q1697.5570083299426 457.52978695269417 1697.5570083299426 448.31345894102014L1697.5570083299426 448.31345894102014L1711.8081821998458 441.5718856732216L1712.5548754415322 441.5718856732216L1712.5548754415322 453.71098437378294ZM1665.2998602890834 418.76574066285224L1665.2998602890834 445.0066745849797L1697.5570083299426 418.8297429407111Q1697.5570083299426 409.3787399102213 1692.6501670274306 405.2612600346354Q1687.7219916322997 401.1437801590496 1681.4284343095128 401.1437801590496L1681.4284343095128 401.1437801590496Q1674.1535087262237 401.1437801590496 1669.7373515539634 405.7092759796474Q1665.2998602890834 410.2961058928648 1665.2998602890834 418.76574066285224L1665.2998602890834 418.76574066285224Z " fill="#000000" transform="matrix(0.5109325766918613,0,0,0.5109325766918613,0,78.4905081303988)"/></g></svg>